<svg xmlns="http://www.w3.org/2000/svg" xmlns:xlink="http://www.w3.org/1999/xlink" width="1080" zoomAndPan="magnify" viewBox="0 0 810 1020" height="1350" preserveAspectRatio="xMidYMid meet" version="1.0"><defs><clipPath id="c19a467af8"><path d="M 0 0 L 810 0 L 810 1012.5 L 0 1012.5 Z M 0 0 " clip-rule="nonzero"/></clipPath><clipPath id="3ba5aa64dc"><path d="M 252.027344 303.75 L 558 303.75 L 558 610 L 252.027344 610 Z M 252.027344 303.75 " clip-rule="nonzero"/></clipPath><clipPath id="d7f0ecb68d"><path d="M 412 561 L 545 561 L 545 708.75 L 412 708.75 Z M 412 561 " clip-rule="nonzero"/></clipPath><clipPath id="36ad902091"><path d="M 265 561 L 398 561 L 398 708.75 L 265 708.75 Z M 265 561 " clip-rule="nonzero"/></clipPath></defs><g clip-path="url(#c19a467af8)"><path fill="#ffffff" d="M 0 0 L 810 0 L 810 1012.5 L 0 1012.5 Z M 0 0 " fill-opacity="1" fill-rule="nonzero"/><path fill="#ffffff" d="M 0 0 L 810 0 L 810 1012.5 L 0 1012.5 Z M 0 0 " fill-opacity="1" fill-rule="nonzero"/></g><path fill="#000000" d="M 405.027344 568.890625 C 343.1875 568.890625 292.777344 518.578125 292.777344 456.660156 C 292.777344 394.828125 343.097656 344.429688 405.027344 344.429688 C 466.960938 344.429688 517.28125 394.828125 517.28125 456.75 C 517.28125 518.578125 466.871094 568.890625 405.027344 568.890625 Z M 405.027344 355.320312 C 349.128906 355.320312 303.578125 400.769531 303.578125 456.75 C 303.578125 512.640625 349.039062 558.179688 405.027344 558.179688 C 461.019531 558.179688 506.476562 512.640625 506.476562 456.75 C 506.476562 400.769531 460.929688 355.320312 405.027344 355.320312 Z M 405.027344 355.320312 " fill-opacity="1" fill-rule="nonzero"/><g clip-path="url(#3ba5aa64dc)"><path fill="#000000" d="M 405.027344 609.570312 C 396.117188 609.570312 388.375 604.621094 381.445312 600.210938 C 376.851562 597.238281 372.53125 594.449219 368.390625 593.371094 C 363.980469 592.199219 358.667969 592.378906 353 592.648438 C 344.625 593.011719 335.894531 593.371094 328.511719 589.140625 C 320.953125 584.820312 316.992188 576.988281 313.03125 569.519531 C 310.511719 564.570312 308.078125 559.890625 304.929688 556.738281 C 301.777344 553.589844 297.097656 551.160156 292.148438 548.640625 C 284.585938 544.769531 276.84375 540.71875 272.523438 533.160156 C 268.203125 525.78125 268.652344 517.050781 269.011719 508.679688 C 269.28125 503.011719 269.460938 497.699219 268.292969 493.289062 C 267.210938 489.148438 264.421875 484.828125 261.449219 480.238281 C 257.039062 473.398438 252.089844 465.570312 252.089844 456.660156 C 252.089844 447.75 257.039062 440.011719 261.449219 433.078125 C 264.421875 428.488281 267.210938 424.171875 268.292969 420.03125 C 269.460938 415.621094 269.28125 410.308594 269.011719 404.640625 C 268.652344 396.269531 268.292969 387.539062 272.523438 380.160156 C 276.84375 372.601562 284.675781 368.640625 292.148438 364.679688 C 297.097656 362.160156 301.777344 359.730469 304.929688 356.578125 C 308.078125 353.429688 310.511719 348.75 313.03125 343.800781 C 316.902344 336.238281 320.953125 328.5 328.511719 324.179688 C 335.894531 319.859375 344.625 320.308594 353 320.671875 C 358.667969 320.941406 363.980469 321.121094 368.390625 319.949219 C 372.53125 318.871094 376.851562 316.078125 381.445312 313.109375 C 388.285156 308.699219 396.117188 303.75 405.027344 303.75 C 413.941406 303.75 421.679688 308.699219 428.613281 313.109375 C 433.203125 316.078125 437.523438 318.871094 441.664062 319.949219 C 446.074219 321.121094 451.386719 320.941406 457.058594 320.671875 C 465.429688 320.308594 474.160156 319.949219 481.542969 324.179688 C 489.105469 328.5 493.066406 336.328125 497.027344 343.800781 C 499.546875 348.75 501.976562 353.429688 505.128906 356.578125 C 508.277344 359.730469 512.957031 362.160156 517.910156 364.679688 C 525.472656 368.550781 533.210938 372.601562 537.535156 380.160156 C 541.855469 387.539062 541.402344 396.269531 541.042969 404.640625 C 540.773438 410.308594 540.59375 415.621094 541.765625 420.03125 C 542.84375 424.171875 545.636719 428.488281 548.605469 433.078125 C 553.015625 439.921875 557.96875 447.75 557.96875 456.660156 C 557.96875 465.570312 553.015625 473.308594 548.605469 480.238281 C 545.636719 484.828125 542.84375 489.148438 541.765625 493.289062 C 540.59375 497.699219 540.773438 503.011719 541.042969 508.679688 C 541.402344 517.050781 541.765625 525.78125 537.535156 533.160156 C 533.210938 540.71875 525.382812 544.679688 517.910156 548.640625 C 512.957031 551.160156 508.277344 553.589844 505.128906 556.738281 C 501.976562 559.890625 499.546875 564.570312 497.027344 569.519531 C 493.15625 577.078125 489.105469 584.820312 481.542969 589.140625 C 474.160156 593.460938 465.429688 593.011719 457.058594 592.648438 C 451.386719 592.378906 446.074219 592.199219 441.664062 593.371094 C 437.523438 594.449219 433.203125 597.238281 428.613281 600.210938 C 421.679688 604.621094 413.941406 609.570312 405.027344 609.570312 Z M 359.75 581.671875 C 363.621094 581.671875 367.492188 581.941406 371.179688 582.929688 C 376.941406 584.460938 382.253906 587.878906 387.292969 591.121094 C 393.414062 595.078125 399.265625 598.769531 405.027344 598.769531 C 410.789062 598.769531 416.550781 595.078125 422.761719 591.121094 C 427.890625 587.878906 433.113281 584.460938 438.875 582.929688 C 444.90625 581.308594 451.296875 581.578125 457.507812 581.851562 C 464.710938 582.121094 471.460938 582.480469 476.140625 579.78125 C 480.914062 576.988281 484.0625 570.960938 487.394531 564.480469 C 490.183594 558.988281 493.15625 553.410156 497.476562 549.089844 C 501.796875 544.769531 507.46875 541.800781 512.867188 539.011719 C 519.261719 535.679688 525.382812 532.53125 528.171875 527.761719 C 530.871094 523.078125 530.601562 516.328125 530.242188 509.128906 C 529.972656 502.921875 529.703125 496.53125 531.324219 490.5 C 532.851562 484.738281 536.273438 479.429688 539.515625 474.390625 C 543.476562 468.269531 547.164062 462.421875 547.164062 456.660156 C 547.164062 450.898438 543.476562 445.140625 539.515625 438.929688 C 536.273438 433.800781 532.851562 428.578125 531.324219 422.820312 C 529.703125 416.789062 529.972656 410.398438 530.242188 404.191406 C 530.511719 396.988281 530.871094 390.238281 528.171875 385.558594 C 525.382812 380.789062 519.351562 377.640625 512.867188 374.308594 C 507.378906 371.519531 501.796875 368.550781 497.476562 364.230469 C 493.15625 359.910156 490.183594 354.238281 487.394531 348.839844 C 484.0625 342.449219 480.914062 336.328125 476.140625 333.539062 C 471.460938 330.839844 464.710938 331.109375 457.507812 331.46875 C 451.296875 331.738281 444.90625 332.011719 438.875 330.390625 C 433.113281 328.859375 427.800781 325.441406 422.761719 322.199219 C 416.640625 318.238281 410.789062 314.550781 405.027344 314.550781 C 399.265625 314.550781 393.507812 318.238281 387.292969 322.199219 C 382.164062 325.441406 376.941406 328.859375 371.179688 330.390625 C 365.152344 332.011719 358.757812 331.738281 352.546875 331.46875 C 345.347656 331.199219 338.59375 330.839844 333.914062 333.539062 C 329.144531 336.328125 325.992188 342.359375 322.664062 348.839844 C 319.871094 354.328125 316.902344 359.910156 312.582031 364.230469 C 308.257812 368.550781 302.589844 371.519531 297.1875 374.308594 C 290.796875 377.640625 284.675781 380.789062 281.882812 385.558594 C 279.183594 390.238281 279.453125 396.988281 279.8125 404.191406 C 280.085938 410.398438 280.355469 416.789062 278.734375 422.820312 C 277.203125 428.578125 273.78125 433.890625 270.542969 438.929688 C 266.582031 445.050781 262.890625 450.898438 262.890625 456.660156 C 262.890625 462.421875 266.582031 468.179688 270.542969 474.390625 C 273.78125 479.519531 277.203125 484.738281 278.734375 490.5 C 280.355469 496.53125 280.085938 502.921875 279.8125 509.128906 C 279.542969 516.328125 279.183594 523.078125 281.882812 527.761719 C 284.675781 532.53125 290.707031 535.679688 297.1875 539.011719 C 302.679688 541.800781 308.257812 544.769531 312.582031 549.089844 C 316.902344 553.410156 319.871094 559.078125 322.664062 564.480469 C 325.992188 570.871094 329.144531 576.988281 333.914062 579.78125 C 338.59375 582.480469 345.347656 582.210938 352.546875 581.851562 C 354.886719 581.761719 357.320312 581.671875 359.75 581.671875 Z M 359.75 581.671875 " fill-opacity="1" fill-rule="nonzero"/></g><g clip-path="url(#d7f0ecb68d)"><path fill="#000000" d="M 461.289062 708.660156 C 459.128906 708.660156 457.148438 707.398438 456.339844 705.328125 L 412.859375 602.550781 C 411.6875 599.761719 412.949219 596.609375 415.738281 595.441406 C 418.53125 594.269531 421.679688 595.53125 422.851562 598.320312 L 460.839844 688.140625 L 473.710938 650.160156 C 474.613281 647.460938 477.492188 645.929688 480.28125 646.738281 L 529.613281 660.511719 L 487.214844 569.519531 C 485.953125 566.820312 487.125 563.578125 489.824219 562.320312 C 492.523438 561.058594 495.765625 562.230469 497.027344 564.929688 L 544.375 666.539062 C 545.273438 668.429688 545.003906 670.679688 543.566406 672.300781 C 542.125 673.921875 540.054688 674.550781 537.984375 674.011719 L 482.261719 658.441406 L 466.417969 705.058594 C 465.699219 707.21875 463.71875 708.660156 461.46875 708.75 C 461.378906 708.660156 461.378906 708.660156 461.289062 708.660156 Z M 461.289062 708.660156 " fill-opacity="1" fill-rule="nonzero"/></g><g clip-path="url(#36ad902091)"><path fill="#000000" d="M 348.765625 708.660156 C 348.675781 708.660156 348.675781 708.660156 348.585938 708.660156 C 346.335938 708.570312 344.355469 707.128906 343.636719 704.96875 L 327.792969 658.351562 L 272.074219 673.921875 C 270.003906 674.460938 267.84375 673.828125 266.492188 672.210938 C 265.140625 670.589844 264.78125 668.339844 265.679688 666.449219 L 313.03125 564.839844 C 314.289062 562.140625 317.53125 560.96875 320.230469 562.230469 C 322.933594 563.488281 324.101562 566.730469 322.84375 569.429688 L 280.445312 660.421875 L 329.773438 646.648438 C 332.5625 645.839844 335.445312 647.371094 336.34375 650.070312 L 349.21875 688.050781 L 387.203125 598.230469 C 388.375 595.441406 391.527344 594.179688 394.316406 595.351562 C 397.105469 596.519531 398.367188 599.671875 397.195312 602.460938 L 353.71875 705.421875 C 352.90625 707.398438 350.929688 708.660156 348.765625 708.660156 Z M 348.765625 708.660156 " fill-opacity="1" fill-rule="nonzero"/></g><path fill="#000000" d="M 390.085938 514.621094 C 385.042969 514.621094 380.273438 512.640625 376.761719 509.039062 L 341.117188 473.488281 C 337.515625 469.890625 335.535156 465.210938 335.535156 460.171875 C 335.535156 455.128906 337.515625 450.359375 341.117188 446.851562 C 344.714844 443.25 349.398438 441.269531 354.4375 441.269531 C 359.480469 441.269531 364.25 443.25 367.761719 446.851562 L 389.996094 469.078125 L 443.464844 415.621094 C 447.066406 412.019531 451.746094 410.039062 456.789062 410.039062 C 461.828125 410.039062 466.601562 412.019531 470.109375 415.621094 C 473.710938 419.21875 475.691406 423.898438 475.691406 428.941406 C 475.691406 433.980469 473.710938 438.75 470.109375 442.261719 L 403.316406 509.039062 C 399.898438 512.640625 395.125 514.621094 390.085938 514.621094 Z M 354.4375 451.980469 C 352.277344 451.980469 350.207031 452.789062 348.675781 454.320312 C 347.148438 455.851562 346.335938 457.921875 346.335938 460.078125 C 346.335938 462.238281 347.148438 464.308594 348.675781 465.839844 L 384.324219 501.480469 C 385.855469 503.011719 387.925781 503.820312 390.085938 503.820312 C 392.246094 503.820312 394.316406 503.011719 395.847656 501.480469 L 462.640625 434.699219 C 464.167969 433.171875 464.980469 431.101562 464.980469 428.941406 C 464.980469 426.78125 464.167969 424.710938 462.640625 423.179688 C 461.109375 421.648438 459.039062 420.839844 456.878906 420.839844 C 454.71875 420.839844 452.648438 421.648438 451.117188 423.179688 L 393.867188 480.421875 C 391.796875 482.488281 388.375 482.488281 386.214844 480.421875 L 360.109375 454.320312 C 358.667969 452.878906 356.597656 451.980469 354.4375 451.980469 Z M 354.4375 451.980469 " fill-opacity="1" fill-rule="nonzero"/></svg>