<svg xmlns="http://www.w3.org/2000/svg" viewBox="0 0 100 100" fill="none" stroke="#1a1a1a" stroke-width="3" stroke-linecap="round" stroke-linejoin="round">
  <circle cx="50" cy="50" r="44"></circle>
  
  <path d="M72 27 L78 33" stroke="#9a9a9a" stroke-width="2.2"></path>
  <path d="M22 67 L28 73" stroke="#9a9a9a" stroke-width="2.2"></path>
  
  
  <path d="M35 19 H43 V24 H35 Z" stroke-width="2.4"></path>
  
  <path d="M34.5 25.5 H43.5" stroke-width="2.2"></path>
  
  <path d="M36 24 V28&#xA;           C36 31 30 33 30 41&#xA;           V69&#xA;           C30 73 32 76 35 77&#xA;           H43&#xA;           C46 76 48 73 48 69&#xA;           V41&#xA;           C48 33 42 31 42 28&#xA;           V24" stroke-width="2.6"></path>
  
  <path d="M30 45 H48" stroke-width="1.9"></path>
  <path d="M30 51 H48" stroke-width="1.9"></path>
  <path d="M30 57 H48" stroke-width="1.9"></path>
  <path d="M31 63 H47" stroke-width="1.9"></path>
  
  <path d="M34 77 C35 73 43 73 44 77" stroke-width="1.7"></path>

  <circle cx="58" cy="38" r="3.4" fill="none" stroke="#1a1a1a" stroke-width="1.5"></circle><circle cx="58" cy="38" r="0.9" fill="#1a1a1a" stroke="none"></circle><circle cx="64" cy="43" r="2.4" fill="none" stroke="#1a1a1a" stroke-width="1.5"></circle><circle cx="64" cy="43" r="0.9" fill="#1a1a1a" stroke="none"></circle><circle cx="54" cy="46" r="3" fill="none" stroke="#1a1a1a" stroke-width="1.5"></circle><circle cx="54" cy="46" r="0.9" fill="#1a1a1a" stroke="none"></circle><circle cx="61" cy="50" r="2.6" fill="none" stroke="#1a1a1a" stroke-width="1.5"></circle><circle cx="61" cy="50" r="0.9" fill="#1a1a1a" stroke="none"></circle><circle cx="67" cy="49" r="1.7" fill="none" stroke="#1a1a1a" stroke-width="1.5"></circle><circle cx="67" cy="49" r="0.9" fill="#1a1a1a" stroke="none"></circle><circle cx="57" cy="56" r="3.2" fill="none" stroke="#1a1a1a" stroke-width="1.5"></circle><circle cx="57" cy="56" r="0.9" fill="#1a1a1a" stroke="none"></circle><circle cx="64" cy="58" r="2.6" fill="none" stroke="#1a1a1a" stroke-width="1.5"></circle><circle cx="64" cy="58" r="0.9" fill="#1a1a1a" stroke="none"></circle><circle cx="59" cy="64" r="2.3" fill="none" stroke="#1a1a1a" stroke-width="1.5"></circle><circle cx="59" cy="64" r="0.9" fill="#1a1a1a" stroke="none"></circle><circle cx="66" cy="65" r="1.9" fill="none" stroke="#1a1a1a" stroke-width="1.5"></circle><circle cx="66" cy="65" r="0.9" fill="#1a1a1a" stroke="none"></circle><circle cx="54" cy="61" r="1.8" fill="none" stroke="#1a1a1a" stroke-width="1.5"></circle><circle cx="54" cy="61" r="0.9" fill="#1a1a1a" stroke="none"></circle><circle cx="60" cy="70" r="2.4" fill="none" stroke="#1a1a1a" stroke-width="1.5"></circle><circle cx="60" cy="70" r="0.9" fill="#1a1a1a" stroke="none"></circle><circle cx="69" cy="40" r="1.1" fill="#1a1a1a" stroke="none"></circle><circle cx="60" cy="44" r="0.9" fill="#1a1a1a" stroke="none"></circle><circle cx="68" cy="55" r="1.1" fill="#1a1a1a" stroke="none"></circle><circle cx="55" cy="52" r="0.9" fill="#1a1a1a" stroke="none"></circle><circle cx="63" cy="67" r="1" fill="#1a1a1a" stroke="none"></circle><circle cx="70" cy="46" r="0.8" fill="#1a1a1a" stroke="none"></circle><circle cx="53" cy="57" r="0.9" fill="#1a1a1a" stroke="none"></circle><circle cx="68" cy="62" r="0.9" fill="#1a1a1a" stroke="none"></circle><circle cx="57" cy="69" r="0.8" fill="#1a1a1a" stroke="none"></circle>
</svg>