<svg xmlns="http://www.w3.org/2000/svg" xmlns:xlink="http://www.w3.org/1999/xlink" width="1080" zoomAndPan="magnify" viewBox="0 0 810 1020" height="1350" preserveAspectRatio="xMidYMid meet" version="1.0"><defs><clipPath id="3bc5bad274"><path d="M 0 0 L 810 0 L 810 1012.5 L 0 1012.5 Z M 0 0 " clip-rule="nonzero"/></clipPath><clipPath id="b939452113"><path d="M 243 344.25 L 567 344.25 L 567 668.25 L 243 668.25 Z M 243 344.25 " clip-rule="nonzero"/></clipPath></defs><g clip-path="url(#3bc5bad274)"><path fill="#ffffff" d="M 0 0 L 810 0 L 810 1012.5 L 0 1012.5 Z M 0 0 " fill-opacity="1" fill-rule="nonzero"/><path fill="#ffffff" d="M 0 0 L 810 0 L 810 1012.5 L 0 1012.5 Z M 0 0 " fill-opacity="1" fill-rule="nonzero"/></g><g clip-path="url(#b939452113)"><path fill="#000000" d="M 404.984375 344.238281 C 315.660156 344.238281 242.988281 416.910156 242.988281 506.234375 C 242.988281 595.554688 315.660156 668.226562 404.984375 668.226562 C 494.304688 668.226562 566.976562 595.554688 566.976562 506.234375 C 566.976562 416.910156 494.304688 344.238281 404.984375 344.238281 Z M 404.984375 655.671875 C 322.582031 655.671875 255.542969 588.632812 255.542969 506.234375 C 255.542969 423.832031 322.582031 356.792969 404.984375 356.792969 C 487.382812 356.792969 554.421875 423.832031 554.421875 506.234375 C 554.421875 588.632812 487.382812 655.671875 404.984375 655.671875 Z M 404.984375 655.671875 " fill-opacity="1" fill-rule="nonzero"/></g><path fill="#000000" d="M 533.996094 515.6875 C 532.363281 514.550781 530.753906 513.371094 529.125 512.175781 C 522.03125 506.984375 513.992188 501.09375 501.945312 496.816406 C 497.976562 495.410156 494.699219 494.332031 491.628906 493.429688 C 468.074219 486.515625 450.90625 490.839844 440.652344 495.6875 C 427.335938 501.980469 417.492188 513.109375 413.640625 526.21875 C 413.527344 526.597656 413.371094 527.132812 413.300781 527.785156 C 411.390625 536.382812 411.511719 543.960938 413.609375 550.476562 C 407.757812 557.945312 403.570312 565.601562 400.601562 572.507812 C 396.023438 583.152344 393.757812 593.128906 392.640625 600.457031 C 377.734375 587.707031 367.363281 572.425781 361.519531 554.785156 C 362.742188 554.902344 363.960938 554.972656 365.179688 554.972656 C 368.996094 554.972656 372.792969 554.390625 376.570312 553.230469 C 376.644531 553.210938 376.714844 553.191406 376.789062 553.167969 L 377.121094 553.058594 C 377.125 553.058594 377.128906 553.054688 377.136719 553.054688 C 383.660156 550.949219 389.546875 547.195312 394.644531 541.894531 C 409.742188 526.191406 417.5 497.195312 394.003906 462.910156 C 383.753906 447.957031 376.910156 433.523438 397.089844 408.273438 C 397.925781 407.230469 398.796875 406.199219 399.679688 405.214844 C 401.703125 402.953125 401.820312 399.570312 399.957031 397.175781 C 398.09375 394.777344 394.785156 394.0625 392.097656 395.464844 C 389.742188 396.691406 387.359375 397.867188 384.945312 399.058594 C 374.625 404.152344 362.933594 409.925781 350.753906 421.261719 C 346.695312 425.039062 343.449219 428.210938 340.539062 431.238281 C 318.441406 454.222656 313.125 476.523438 312.5625 491.1875 C 311.832031 510.105469 318.65625 527.921875 331.289062 540.066406 C 331.660156 540.421875 332.125 540.871094 332.742188 541.269531 C 337.605469 545.363281 342.476562 548.535156 347.339844 550.796875 C 354.265625 577.703125 370.09375 600.414062 394.179688 617.566406 C 395.261719 618.335938 396.539062 618.730469 397.820312 618.730469 C 398.804688 618.730469 399.792969 618.496094 400.703125 618.03125 C 402.789062 616.949219 404.101562 614.796875 404.097656 612.445312 C 404.097656 612.03125 404.371094 585.839844 420.636719 562.25 C 420.753906 562.375 420.863281 562.503906 420.980469 562.625 C 421.03125 562.675781 421.078125 562.722656 421.125 562.773438 L 421.3125 562.957031 C 421.316406 562.960938 421.320312 562.960938 421.320312 562.964844 C 425.1875 566.777344 429.972656 569.542969 435.542969 571.179688 C 439.027344 572.203125 442.804688 572.777344 446.746094 572.777344 C 461.300781 572.777344 478.03125 564.890625 489.988281 542.460938 C 496.351562 530.527344 503.054688 521.761719 525.984375 526.269531 C 526.949219 526.460938 527.90625 526.675781 528.851562 526.917969 C 531.792969 527.664062 534.847656 526.207031 536.109375 523.449219 C 537.371094 520.691406 536.484375 517.425781 533.996094 515.6875 Z M 340.746094 531.597656 C 340.519531 531.40625 340.242188 531.171875 339.90625 530.9375 C 329.910156 521.273438 324.515625 506.96875 325.105469 491.667969 C 325.589844 479.1875 330.226562 460.074219 349.589844 439.9375 C 352.335938 437.082031 355.421875 434.066406 359.308594 430.449219 C 365.097656 425.0625 370.746094 421.09375 376.285156 417.8125 C 366.496094 439.21875 373.714844 455.515625 383.648438 470.007812 C 399.984375 493.847656 400.714844 517.46875 385.59375 533.195312 C 381.949219 536.988281 377.800781 539.648438 373.269531 541.109375 C 373.269531 541.109375 373.265625 541.109375 373.265625 541.109375 L 373.246094 541.117188 C 368.261719 542.71875 363.207031 542.808594 358.023438 541.402344 C 356.472656 533.324219 355.757812 524.816406 355.90625 515.882812 C 356.390625 486.449219 366.378906 463.203125 366.480469 462.972656 C 367.867188 459.796875 366.421875 456.101562 363.25 454.710938 C 360.074219 453.320312 356.371094 454.765625 354.976562 457.941406 C 354.53125 458.964844 343.984375 483.378906 343.359375 515.226562 C 343.230469 521.785156 343.542969 528.171875 344.277344 534.375 C 343.105469 533.511719 341.929688 532.597656 340.746094 531.597656 Z M 478.910156 536.554688 C 469.015625 555.109375 454.132812 563.554688 439.082031 559.132812 C 435.519531 558.085938 432.507812 556.367188 430.132812 554.023438 L 430.128906 554.019531 C 429.59375 553.492188 429.109375 552.933594 428.648438 552.363281 C 437.886719 542.648438 450.589844 534.199219 468.082031 529.375 C 471.421875 528.453125 473.386719 524.996094 472.464844 521.65625 C 471.542969 518.3125 468.082031 516.355469 464.746094 517.273438 C 447.515625 522.023438 434.429688 529.863281 424.484375 538.824219 C 424.535156 536.246094 424.894531 533.441406 425.585938 530.363281 C 425.632812 530.160156 425.691406 529.898438 425.738281 529.582031 C 428.617188 519.980469 436 511.769531 446.015625 507.035156 C 454.304688 503.121094 468.324219 499.671875 488.089844 505.476562 C 490.933594 506.3125 494.003906 507.320312 497.746094 508.648438 C 501.464844 509.96875 504.742188 511.472656 507.730469 513.085938 C 492.53125 515.5 484.796875 525.515625 478.910156 536.554688 Z M 478.910156 536.554688 " fill-opacity="1" fill-rule="nonzero"/></svg>