<svg xmlns="http://www.w3.org/2000/svg" xmlns:xlink="http://www.w3.org/1999/xlink" width="1080" zoomAndPan="magnify" viewBox="0 0 810 1020" height="1350" preserveAspectRatio="xMidYMid meet" version="1.0"><defs><clipPath id="7dd5a10c82"><path d="M 0 0 L 810 0 L 810 1012.5 L 0 1012.5 Z M 0 0 " clip-rule="nonzero"/></clipPath><clipPath id="c3bdaffb3a"><path d="M 243 344.25 L 567 344.25 L 567 668.25 L 243 668.25 Z M 243 344.25 " clip-rule="nonzero"/></clipPath></defs><g clip-path="url(#7dd5a10c82)"><path fill="#ffffff" d="M 0 0 L 810 0 L 810 1012.5 L 0 1012.5 Z M 0 0 " fill-opacity="1" fill-rule="nonzero"/><path fill="#ffffff" d="M 0 0 L 810 0 L 810 1012.5 L 0 1012.5 Z M 0 0 " fill-opacity="1" fill-rule="nonzero"/></g><g clip-path="url(#c3bdaffb3a)"><path fill="#000000" d="M 519.925781 391.339844 C 518.046875 389.460938 516.121094 387.628906 514.152344 385.839844 C 512.179688 384.054688 510.167969 382.316406 508.109375 380.628906 C 506.054688 378.941406 503.957031 377.308594 501.824219 375.722656 C 499.6875 374.136719 497.511719 372.605469 495.300781 371.128906 C 493.089844 369.652344 490.84375 368.230469 488.5625 366.859375 C 486.28125 365.492188 483.964844 364.183594 481.621094 362.929688 C 479.277344 361.675781 476.902344 360.480469 474.496094 359.34375 C 472.089844 358.203125 469.660156 357.128906 467.203125 356.109375 C 464.746094 355.089844 462.265625 354.132812 459.761719 353.238281 C 457.257812 352.34375 454.730469 351.507812 452.1875 350.734375 C 449.640625 349.964844 447.078125 349.253906 444.5 348.609375 C 441.917969 347.960938 439.324219 347.378906 436.714844 346.859375 C 434.109375 346.339844 431.488281 345.886719 428.855469 345.496094 C 426.226562 345.105469 423.585938 344.78125 420.941406 344.519531 C 418.292969 344.257812 415.640625 344.0625 412.984375 343.933594 C 410.328125 343.800781 407.667969 343.734375 405.011719 343.734375 C 402.351562 343.734375 399.691406 343.800781 397.035156 343.929688 C 394.378906 344.0625 391.726562 344.257812 389.082031 344.519531 C 386.433594 344.777344 383.792969 345.105469 381.164062 345.492188 C 378.53125 345.882812 375.914062 346.339844 373.304688 346.855469 C 370.695312 347.375 368.101562 347.957031 365.519531 348.605469 C 362.941406 349.25 360.378906 349.960938 357.832031 350.730469 C 355.289062 351.503906 352.761719 352.335938 350.257812 353.234375 C 347.753906 354.128906 345.273438 355.085938 342.816406 356.105469 C 340.359375 357.121094 337.925781 358.199219 335.523438 359.335938 C 333.117188 360.472656 330.742188 361.667969 328.398438 362.921875 C 326.050781 364.175781 323.738281 365.488281 321.457031 366.855469 C 319.175781 368.222656 316.929688 369.644531 314.71875 371.121094 C 312.503906 372.597656 310.332031 374.128906 308.195312 375.714844 C 306.058594 377.296875 303.960938 378.933594 301.90625 380.621094 C 299.851562 382.308594 297.835938 384.046875 295.867188 385.832031 C 293.894531 387.617188 291.96875 389.453125 290.089844 391.332031 C 288.207031 393.210938 286.375 395.136719 284.589844 397.109375 C 282.800781 399.078125 281.066406 401.09375 279.378906 403.148438 C 277.691406 405.203125 276.054688 407.300781 274.46875 409.4375 C 272.886719 411.574219 271.355469 413.746094 269.875 415.960938 C 268.398438 418.171875 266.976562 420.417969 265.609375 422.699219 C 264.242188 424.980469 262.929688 427.292969 261.675781 429.636719 C 260.421875 431.984375 259.226562 434.359375 258.089844 436.761719 C 256.953125 439.167969 255.875 441.597656 254.855469 444.054688 C 253.839844 446.511719 252.882812 448.992188 251.984375 451.5 C 251.089844 454.003906 250.253906 456.527344 249.484375 459.074219 C 248.710938 461.617188 248 464.179688 247.355469 466.761719 C 246.707031 469.339844 246.125 471.933594 245.605469 474.542969 C 245.085938 477.152344 244.632812 479.773438 244.242188 482.402344 C 243.851562 485.035156 243.527344 487.671875 243.265625 490.320312 C 243.003906 492.964844 242.808594 495.617188 242.679688 498.273438 C 242.546875 500.933594 242.484375 503.589844 242.484375 506.25 C 242.480469 508.910156 242.546875 511.566406 242.679688 514.222656 C 242.808594 516.878906 243.003906 519.53125 243.265625 522.179688 C 243.523438 524.828125 243.851562 527.464844 244.242188 530.097656 C 244.628906 532.726562 245.085938 535.347656 245.605469 537.957031 C 246.121094 540.566406 246.707031 543.160156 247.351562 545.738281 C 247.996094 548.320312 248.707031 550.882812 249.480469 553.425781 C 250.25 555.972656 251.085938 558.496094 251.980469 561 C 252.875 563.507812 253.832031 565.988281 254.851562 568.445312 C 255.867188 570.902344 256.945312 573.332031 258.082031 575.738281 C 259.21875 578.140625 260.414062 580.515625 261.667969 582.863281 C 262.921875 585.207031 264.234375 587.523438 265.601562 589.804688 C 266.96875 592.085938 268.390625 594.332031 269.867188 596.542969 C 271.347656 598.753906 272.875 600.929688 274.460938 603.0625 C 276.046875 605.199219 277.679688 607.296875 279.367188 609.351562 C 281.054688 611.410156 282.792969 613.421875 284.578125 615.394531 C 286.363281 617.363281 288.199219 619.289062 290.078125 621.171875 C 291.960938 623.050781 293.886719 624.886719 295.855469 626.671875 C 297.828125 628.457031 299.839844 630.195312 301.894531 631.882812 C 303.953125 633.570312 306.046875 635.207031 308.183594 636.789062 C 310.320312 638.375 312.496094 639.90625 314.707031 641.382812 C 316.917969 642.863281 319.164062 644.285156 321.445312 645.652344 C 323.726562 647.019531 326.039062 648.328125 328.386719 649.582031 C 330.730469 650.835938 333.105469 652.035156 335.511719 653.171875 C 337.914062 654.308594 340.34375 655.386719 342.804688 656.402344 C 345.261719 657.421875 347.742188 658.378906 350.246094 659.273438 C 352.75 660.171875 355.273438 661.003906 357.820312 661.777344 C 360.363281 662.550781 362.925781 663.257812 365.507812 663.90625 C 368.085938 664.550781 370.679688 665.132812 373.289062 665.652344 C 375.898438 666.171875 378.519531 666.625 381.148438 667.015625 C 383.78125 667.40625 386.417969 667.734375 389.066406 667.992188 C 391.714844 668.253906 394.367188 668.449219 397.023438 668.582031 C 399.679688 668.710938 402.335938 668.777344 404.996094 668.777344 C 407.65625 668.777344 410.3125 668.710938 412.972656 668.582031 C 415.628906 668.453125 418.277344 668.257812 420.925781 667.996094 C 423.574219 667.734375 426.210938 667.410156 428.84375 667.019531 C 431.472656 666.628906 434.09375 666.175781 436.703125 665.65625 C 439.3125 665.136719 441.90625 664.554688 444.484375 663.910156 C 447.066406 663.261719 449.628906 662.554688 452.175781 661.78125 C 454.71875 661.007812 457.242188 660.175781 459.75 659.277344 C 462.253906 658.382812 464.734375 657.425781 467.191406 656.410156 C 469.648438 655.390625 472.078125 654.3125 474.484375 653.175781 C 476.886719 652.039062 479.261719 650.84375 481.609375 649.589844 C 483.953125 648.335938 486.269531 647.027344 488.550781 645.660156 C 490.832031 644.292969 493.078125 642.867188 495.289062 641.390625 C 497.5 639.914062 499.675781 638.382812 501.8125 636.796875 C 503.949219 635.214844 506.042969 633.578125 508.101562 631.890625 C 510.15625 630.203125 512.167969 628.46875 514.140625 626.679688 C 516.109375 624.894531 518.035156 623.0625 519.917969 621.179688 C 521.796875 619.300781 523.632812 617.375 525.417969 615.402344 C 527.203125 613.433594 528.941406 611.417969 530.628906 609.363281 C 532.316406 607.308594 533.953125 605.210938 535.535156 603.074219 C 537.121094 600.9375 538.652344 598.765625 540.128906 596.554688 C 541.609375 594.34375 543.03125 592.097656 544.398438 589.816406 C 545.765625 587.535156 547.078125 585.21875 548.332031 582.875 C 549.585938 580.527344 550.78125 578.152344 551.917969 575.75 C 553.054688 573.34375 554.132812 570.914062 555.148438 568.457031 C 556.167969 566 557.125 563.519531 558.019531 561.015625 C 558.917969 558.511719 559.75 555.984375 560.523438 553.441406 C 561.296875 550.894531 562.003906 548.332031 562.652344 545.753906 C 563.296875 543.171875 563.882812 540.578125 564.398438 537.96875 C 564.917969 535.359375 565.375 532.742188 565.765625 530.109375 C 566.15625 527.480469 566.480469 524.839844 566.742188 522.191406 C 567 519.546875 567.199219 516.894531 567.328125 514.238281 C 567.457031 511.582031 567.523438 508.921875 567.523438 506.261719 C 567.523438 503.605469 567.460938 500.945312 567.328125 498.289062 C 567.199219 495.632812 567.003906 492.980469 566.742188 490.332031 C 566.480469 487.6875 566.15625 485.046875 565.765625 482.417969 C 565.375 479.785156 564.921875 477.164062 564.402344 474.558594 C 563.882812 471.949219 563.300781 469.355469 562.65625 466.773438 C 562.007812 464.195312 561.300781 461.632812 560.527344 459.085938 C 559.757812 456.539062 558.921875 454.015625 558.027344 451.511719 C 557.128906 449.007812 556.171875 446.527344 555.15625 444.070312 C 554.136719 441.613281 553.058594 439.179688 551.921875 436.777344 C 550.785156 434.371094 549.589844 431.996094 548.335938 429.652344 C 547.082031 427.304688 545.773438 424.992188 544.40625 422.710938 C 543.039062 420.429688 541.617188 418.183594 540.136719 415.96875 C 538.660156 413.757812 537.128906 411.585938 535.546875 409.449219 C 533.960938 407.3125 532.324219 405.214844 530.636719 403.160156 C 528.949219 401.105469 527.214844 399.089844 525.429688 397.121094 C 523.640625 395.148438 521.808594 393.222656 519.925781 391.339844 Z M 405 659.050781 C 400.199219 659.054688 395.410156 658.832031 390.628906 658.382812 C 385.847656 657.929688 381.101562 657.257812 376.386719 656.355469 C 371.667969 655.457031 367.007812 654.339844 362.394531 652.996094 C 357.785156 651.65625 353.25 650.101562 348.785156 648.332031 C 344.324219 646.5625 339.953125 644.589844 335.679688 642.40625 C 331.402344 640.222656 327.238281 637.84375 323.1875 635.265625 C 319.136719 632.691406 315.214844 629.929688 311.425781 626.980469 C 307.636719 624.035156 303.996094 620.914062 300.5 617.621094 L 341.941406 576.1875 C 342.167969 575.960938 342.371094 575.714844 342.546875 575.449219 C 342.722656 575.183594 342.875 574.902344 342.996094 574.609375 C 343.117188 574.3125 343.210938 574.007812 343.273438 573.695312 C 343.335938 573.382812 343.367188 573.066406 343.367188 572.746094 C 343.367188 572.425781 343.335938 572.109375 343.273438 571.796875 C 343.210938 571.484375 343.117188 571.179688 342.996094 570.886719 C 342.875 570.589844 342.722656 570.308594 342.546875 570.042969 C 342.371094 569.777344 342.167969 569.535156 341.941406 569.308594 C 341.714844 569.082031 341.472656 568.878906 341.207031 568.703125 C 340.941406 568.527344 340.660156 568.375 340.363281 568.253906 C 340.070312 568.132812 339.765625 568.039062 339.453125 567.976562 C 339.140625 567.914062 338.824219 567.882812 338.503906 567.882812 C 338.183594 567.882812 337.867188 567.914062 337.554688 567.976562 C 337.242188 568.039062 336.9375 568.132812 336.640625 568.253906 C 336.347656 568.375 336.066406 568.527344 335.800781 568.703125 C 335.535156 568.878906 335.289062 569.082031 335.0625 569.308594 L 293.628906 610.75 C 290.335938 607.253906 287.21875 603.613281 284.273438 599.820312 C 281.328125 596.03125 278.566406 592.109375 275.992188 588.058594 C 273.417969 584.007812 271.039062 579.84375 268.859375 575.570312 C 266.675781 571.292969 264.703125 566.921875 262.933594 562.460938 C 261.164062 557.996094 259.613281 553.460938 258.273438 548.851562 C 256.933594 544.242188 255.816406 539.578125 254.917969 534.863281 C 254.019531 530.148438 253.347656 525.398438 252.898438 520.621094 C 252.449219 515.839844 252.226562 511.050781 252.230469 506.25 C 252.230469 421.992188 320.742188 353.480469 405 353.480469 C 409.800781 353.476562 414.589844 353.699219 419.371094 354.148438 C 424.148438 354.597656 428.898438 355.269531 433.613281 356.167969 C 438.328125 357.066406 442.992188 358.183594 447.601562 359.523438 C 452.210938 360.863281 456.746094 362.414062 461.210938 364.183594 C 465.671875 365.953125 470.042969 367.925781 474.320312 370.109375 C 478.59375 372.289062 482.757812 374.667969 486.808594 377.242188 C 490.859375 379.816406 494.78125 382.578125 498.570312 385.523438 C 502.363281 388.46875 506.003906 391.585938 509.5 394.878906 L 454.628906 449.75 C 454.402344 449.976562 454.199219 450.222656 454.019531 450.488281 C 453.84375 450.753906 453.695312 451.03125 453.570312 451.328125 C 453.449219 451.621094 453.355469 451.925781 453.292969 452.238281 C 453.230469 452.554688 453.199219 452.871094 453.199219 453.1875 C 453.199219 453.507812 453.230469 453.824219 453.292969 454.136719 C 453.355469 454.449219 453.445312 454.753906 453.570312 455.050781 C 453.691406 455.34375 453.839844 455.625 454.019531 455.890625 C 454.195312 456.15625 454.398438 456.402344 454.621094 456.628906 C 454.847656 456.851562 455.09375 457.054688 455.359375 457.230469 C 455.625 457.410156 455.90625 457.558594 456.199219 457.679688 C 456.496094 457.804688 456.800781 457.894531 457.113281 457.957031 C 457.425781 458.019531 457.742188 458.050781 458.0625 458.050781 C 458.378906 458.050781 458.695312 458.019531 459.011719 457.957031 C 459.324219 457.894531 459.628906 457.800781 459.921875 457.679688 C 460.21875 457.554688 460.496094 457.40625 460.761719 457.230469 C 461.027344 457.050781 461.273438 456.847656 461.5 456.621094 L 516.371094 401.75 C 519.664062 405.246094 522.785156 408.886719 525.730469 412.675781 C 528.679688 416.464844 531.441406 420.386719 534.015625 424.4375 C 536.59375 428.488281 538.972656 432.652344 541.15625 436.929688 C 543.339844 441.203125 545.3125 445.574219 547.082031 450.035156 C 548.851562 454.5 550.40625 459.035156 551.746094 463.644531 C 553.089844 468.257812 554.207031 472.917969 555.105469 477.636719 C 556.007812 482.351562 556.679688 487.097656 557.132812 491.878906 C 557.582031 496.660156 557.804688 501.449219 557.800781 506.25 C 557.800781 590.507812 489.257812 659.050781 405 659.050781 Z M 488.679688 508.851562 C 488.679688 508.835938 488.679688 508.824219 488.679688 508.8125 C 488.652344 508.632812 488.617188 508.457031 488.574219 508.285156 L 488.535156 508.136719 C 488.488281 508 488.445312 507.855469 488.386719 507.710938 C 488.371094 507.667969 488.355469 507.621094 488.332031 507.574219 C 488.257812 507.398438 488.175781 507.226562 488.082031 507.054688 C 487.984375 506.886719 487.875 506.726562 487.753906 506.574219 L 487.664062 506.457031 C 487.566406 506.339844 487.46875 506.222656 487.363281 506.121094 C 487.332031 506.082031 487.300781 506.046875 487.261719 506.015625 C 487.132812 505.886719 487 505.769531 486.859375 505.660156 L 486.824219 505.660156 C 486.667969 505.539062 486.507812 505.425781 486.339844 505.328125 L 486.300781 505.328125 L 450.503906 484.621094 L 450.503906 443.257812 C 450.503906 443.058594 450.488281 442.863281 450.464844 442.664062 C 450.464844 442.652344 450.464844 442.640625 450.464844 442.625 C 450.4375 442.445312 450.402344 442.269531 450.355469 442.09375 L 450.316406 441.949219 C 450.277344 441.808594 450.226562 441.671875 450.175781 441.527344 L 450.117188 441.390625 C 450.042969 441.210938 449.957031 441.039062 449.863281 440.871094 C 449.765625 440.703125 449.660156 440.542969 449.542969 440.390625 L 449.445312 440.265625 C 449.347656 440.148438 449.257812 440.039062 449.152344 439.933594 L 449.042969 439.824219 C 448.921875 439.703125 448.789062 439.585938 448.652344 439.480469 L 448.605469 439.441406 C 448.453125 439.324219 448.289062 439.214844 448.121094 439.117188 L 448.082031 439.117188 L 409.867188 417.050781 C 409.117188 416.621094 408.304688 416.402344 407.4375 416.402344 C 406.570312 416.402344 405.757812 416.621094 405.007812 417.050781 L 366.789062 439.117188 L 366.753906 439.117188 C 366.582031 439.214844 366.417969 439.324219 366.261719 439.449219 C 366.117188 439.558594 365.980469 439.683594 365.851562 439.8125 L 365.75 439.910156 C 365.644531 440.019531 365.546875 440.128906 365.449219 440.253906 L 365.359375 440.371094 C 365.242188 440.523438 365.136719 440.6875 365.039062 440.851562 C 364.945312 441.019531 364.855469 441.195312 364.78125 441.371094 L 364.726562 441.507812 C 364.671875 441.644531 364.625 441.789062 364.585938 441.929688 C 364.585938 441.984375 364.550781 442.027344 364.539062 442.074219 C 364.496094 442.25 364.460938 442.425781 364.433594 442.605469 C 364.433594 442.605469 364.433594 442.605469 364.433594 442.644531 C 364.410156 442.84375 364.394531 443.039062 364.394531 443.238281 L 364.394531 484.601562 L 328.640625 505.261719 L 328.609375 505.261719 C 328.433594 505.359375 328.265625 505.46875 328.109375 505.59375 C 327.964844 505.710938 327.824219 505.832031 327.691406 505.964844 L 327.59375 506.066406 C 327.488281 506.175781 327.386719 506.289062 327.296875 506.40625 L 327.203125 506.523438 C 327.085938 506.675781 326.976562 506.835938 326.878906 507.003906 C 326.785156 507.171875 326.699219 507.34375 326.625 507.523438 L 326.566406 507.660156 C 326.515625 507.804688 326.464844 507.945312 326.425781 508.082031 L 326.386719 508.234375 C 326.339844 508.40625 326.300781 508.582031 326.273438 508.757812 C 326.277344 508.773438 326.277344 508.785156 326.273438 508.796875 C 326.273438 508.992188 326.242188 509.195312 326.234375 509.390625 L 326.234375 553.59375 C 326.234375 554.464844 326.453125 555.273438 326.886719 556.023438 C 327.320312 556.777344 327.914062 557.367188 328.667969 557.800781 L 366.878906 579.863281 L 366.917969 579.863281 C 367.09375 579.964844 367.273438 580.054688 367.457031 580.132812 C 367.625 580.203125 367.800781 580.261719 367.976562 580.308594 L 368.121094 580.347656 C 368.265625 580.378906 368.40625 580.410156 368.554688 580.429688 L 368.707031 580.429688 C 369.089844 580.472656 369.476562 580.472656 369.863281 580.429688 L 370.011719 580.429688 C 370.164062 580.429688 370.304688 580.378906 370.453125 580.347656 L 370.546875 580.359375 C 370.722656 580.3125 370.898438 580.253906 371.066406 580.183594 L 371.097656 580.183594 C 371.28125 580.105469 371.457031 580.015625 371.632812 579.917969 L 371.671875 579.917969 L 407.457031 559.257812 L 443.246094 579.917969 C 443.417969 580.015625 443.597656 580.105469 443.785156 580.183594 C 443.953125 580.253906 444.125 580.3125 444.304688 580.359375 L 444.445312 580.398438 C 444.589844 580.429688 444.738281 580.464844 444.890625 580.484375 L 445.039062 580.484375 C 445.421875 580.527344 445.804688 580.527344 446.1875 580.484375 L 446.339844 580.484375 C 446.488281 580.484375 446.636719 580.429688 446.78125 580.398438 L 446.921875 580.359375 C 447.101562 580.3125 447.273438 580.253906 447.445312 580.183594 C 447.628906 580.105469 447.808594 580.015625 447.984375 579.917969 L 448.015625 579.917969 L 486.234375 557.851562 C 486.984375 557.421875 487.578125 556.828125 488.011719 556.078125 C 488.449219 555.324219 488.664062 554.515625 488.664062 553.648438 L 488.664062 509.5 C 488.664062 509.5 488.664062 509.46875 488.664062 509.453125 C 488.683594 509.253906 488.6875 509.050781 488.679688 508.851562 Z M 364.355469 567.265625 L 335.859375 550.8125 L 335.859375 517.914062 L 364.355469 534.359375 Z M 369.246094 525.949219 L 340.71875 509.5 L 369.246094 493.039062 L 397.710938 509.5 Z M 402.601562 550.8125 L 374.109375 567.265625 L 374.109375 534.359375 L 402.601562 517.914062 Z M 402.601562 501.074219 L 374.109375 484.621094 L 374.109375 451.714844 L 402.601562 468.167969 Z M 378.933594 443.300781 L 407.429688 426.847656 L 435.925781 443.300781 L 407.429688 459.75 Z M 440.785156 451.714844 L 440.785156 484.621094 L 412.289062 501.050781 L 412.289062 468.167969 Z M 440.785156 567.265625 L 412.289062 550.8125 L 412.289062 517.914062 L 440.785156 534.359375 Z M 445.644531 525.949219 L 417.148438 509.5 L 445.644531 493.046875 L 474.140625 509.5 Z M 479.003906 550.8125 L 450.503906 567.265625 L 450.503906 534.359375 L 479.003906 517.914062 Z M 479.003906 550.8125 " fill-opacity="1" fill-rule="nonzero"/></g></svg>