<svg xmlns="http://www.w3.org/2000/svg" xmlns:xlink="http://www.w3.org/1999/xlink" width="1080" zoomAndPan="magnify" viewBox="0 0 810 1020" height="1350" preserveAspectRatio="xMidYMid meet" version="1.0"><defs><clipPath id="4ef4f142dc"><path d="M 0 0 L 810 0 L 810 1012.5 L 0 1012.5 Z M 0 0 " clip-rule="nonzero"/></clipPath><clipPath id="049fcb28a8"><path d="M 276 303.75 L 534 303.75 L 534 708.75 L 276 708.75 Z M 276 303.75 " clip-rule="nonzero"/></clipPath></defs><g clip-path="url(#4ef4f142dc)"><path fill="#ffffff" d="M 0 0 L 810 0 L 810 1012.5 L 0 1012.5 Z M 0 0 " fill-opacity="1" fill-rule="nonzero"/><path fill="#ffffff" d="M 0 0 L 810 0 L 810 1012.5 L 0 1012.5 Z M 0 0 " fill-opacity="1" fill-rule="nonzero"/></g><g clip-path="url(#049fcb28a8)"><path fill="#000000" d="M 413.015625 660.488281 L 406.433594 660.824219 L 400.359375 661.105469 L 400.695312 667.40625 C 401.203125 677.980469 398.894531 686.476562 393.324219 694.070312 C 392.425781 695.304688 391.019531 696.039062 389.5 696.039062 L 386.179688 696.039062 C 385.671875 696.039062 385.222656 695.980469 384.773438 695.8125 L 374.253906 692.324219 C 374.644531 690.074219 374.925781 687.824219 375.152344 685.632812 C 375.882812 679.050781 376.445312 674.832031 379.765625 671.511719 L 384.265625 667.011719 L 375.320312 658.070312 L 370.820312 662.570312 C 369.414062 663.976562 368.289062 665.492188 367.332031 667.070312 C 363.898438 672.636719 363.167969 678.769531 362.605469 684.335938 C 362.4375 685.6875 362.324219 686.980469 362.101562 688.273438 C 361.988281 689.230469 361.816406 690.242188 361.59375 691.199219 C 361.3125 692.382812 360.691406 693.394531 359.90625 694.238281 C 358.722656 695.363281 357.148438 696.09375 355.460938 696.09375 L 337.511719 696.09375 C 335.769531 696.09375 334.191406 695.363281 333.066406 694.238281 C 332.222656 693.449219 331.605469 692.382812 331.378906 691.199219 C 331.15625 690.242188 331.042969 689.289062 330.875 688.273438 C 330.703125 686.980469 330.535156 685.632812 330.367188 684.335938 C 329.804688 678.769531 329.074219 672.695312 325.640625 667.070312 C 324.683594 665.550781 323.558594 664.03125 322.152344 662.570312 L 317.652344 658.070312 L 308.707031 667.011719 L 313.207031 671.511719 C 316.527344 674.832031 317.089844 679.050781 317.820312 685.632812 C 318.046875 687.824219 318.328125 690.019531 318.722656 692.269531 L 308.199219 695.757812 C 307.75 695.925781 307.242188 695.980469 306.792969 695.980469 L 303.472656 695.980469 C 302.011719 695.980469 300.546875 695.25 299.648438 694.011719 C 294.132812 686.363281 291.769531 677.867188 292.332031 667.351562 C 292.671875 660.769531 293.628906 655.761719 294.640625 650.476562 C 295.316406 646.929688 295.992188 643.21875 296.496094 639.113281 L 371.832031 639.113281 L 371.832031 626.457031 L 297.117188 626.457031 C 296.835938 619.707031 295.765625 610.257812 294.527344 599.0625 C 292.726562 582.976562 290.535156 563.34375 289.800781 544.164062 L 378.132812 544.164062 L 378.132812 531.5625 L 289.578125 531.5625 L 289.519531 461.925781 L 371.832031 461.925781 L 371.832031 449.269531 L 289.464844 449.269531 C 289.464844 441.167969 292.894531 425.867188 308.425781 398.644531 L 365.417969 398.644531 L 365.417969 385.988281 L 315.738281 385.988281 C 320.804688 376.875 330.480469 357.75 332.730469 341.664062 L 360.1875 341.664062 C 362.71875 359.945312 374.925781 382.164062 378.976562 389.136719 L 383.761719 397.179688 L 389.105469 393.976562 L 394.5625 390.65625 L 389.894531 382.835938 C 383.03125 370.96875 375.207031 354.261719 373.015625 341.71875 L 374.925781 341.71875 L 374.925781 316.40625 C 374.925781 309.429688 369.246094 303.75 362.269531 303.75 L 330.59375 303.75 C 323.617188 303.75 317.933594 309.429688 317.933594 316.40625 L 317.933594 341.71875 L 319.847656 341.71875 C 317.597656 354.261719 309.832031 371.023438 302.910156 382.894531 L 301.5625 385.257812 C 285.132812 412.648438 276.75 434.25 276.75 449.324219 L 276.75 461.980469 L 276.804688 531.617188 L 276.691406 531.617188 L 276.804688 538.085938 L 276.804688 544.273438 L 276.972656 544.273438 C 277.707031 564.019531 279.957031 584.101562 281.8125 600.582031 C 283.332031 614.25 284.683594 626.0625 284.34375 631.519531 C 284.007812 637.988281 283.050781 642.9375 282.039062 648.167969 C 280.96875 653.679688 279.84375 659.363281 279.507812 666.84375 C 278.832031 680.230469 282.039062 691.59375 289.238281 701.550781 C 292.503906 706.105469 297.792969 708.804688 303.304688 708.804688 L 306.625 708.804688 C 308.480469 708.804688 310.339844 708.523438 312.082031 707.90625 L 324.574219 703.742188 C 328.003906 706.894531 332.503906 708.804688 337.398438 708.804688 L 355.347656 708.804688 C 360.242188 708.804688 364.742188 706.894531 368.175781 703.742188 L 380.667969 707.90625 C 382.410156 708.46875 384.265625 708.804688 386.125 708.804688 L 389.441406 708.804688 C 394.957031 708.804688 400.246094 706.105469 403.507812 701.550781 C 410.824219 691.425781 413.917969 680.398438 413.242188 666.84375 Z M 330.648438 316.351562 L 362.324219 316.351562 L 362.324219 329.007812 L 330.648438 329.007812 Z M 440.359375 493.199219 L 449.308594 484.199219 L 458.253906 493.199219 L 449.308594 502.144531 C 440.359375 493.199219 449.25 502.144531 440.359375 493.199219 Z M 421.289062 385.59375 L 430.289062 376.59375 L 439.234375 385.59375 L 430.289062 394.539062 C 421.289062 385.59375 430.289062 394.539062 421.289062 385.59375 Z M 446.664062 398.25 L 455.609375 389.25 L 464.554688 398.25 L 455.609375 407.195312 C 446.664062 398.25 455.609375 407.195312 446.664062 398.25 Z M 449.417969 457.648438 L 466.1875 467.324219 C 468.097656 468.449219 470.238281 469.011719 472.316406 469.011719 C 474.398438 469.011719 476.539062 468.449219 478.449219 467.324219 C 482.277344 465.132812 484.582031 461.136719 484.582031 456.695312 L 484.582031 437.34375 C 484.582031 432.898438 482.277344 428.960938 478.449219 426.710938 C 474.625 424.460938 470.011719 424.519531 466.1875 426.710938 L 449.417969 436.386719 C 445.59375 438.582031 443.285156 442.574219 443.285156 447.019531 C 443.285156 451.460938 445.59375 455.398438 449.417969 457.648438 Z M 456.339844 447.019531 L 471.925781 438.019531 L 471.925781 456.019531 Z M 397.375 501.300781 C 398.445312 501.582031 399.515625 501.75 400.582031 501.75 C 403.789062 501.75 406.828125 500.511719 409.191406 498.148438 L 409.699219 497.644531 L 422.863281 484.480469 C 426.015625 481.332031 427.195312 476.945312 426.015625 472.667969 C 424.890625 468.394531 421.625 465.132812 417.351562 464.007812 L 409.699219 461.980469 L 398.613281 459 C 394.339844 457.820312 389.894531 459.054688 386.742188 462.148438 C 383.59375 465.300781 382.410156 469.6875 383.59375 473.960938 L 388.597656 492.695312 C 389.835938 496.914062 393.101562 500.175781 397.375 501.300781 Z M 409.753906 474.976562 L 413.46875 475.988281 L 409.753906 479.699219 L 400.753906 488.699219 L 396.082031 471.320312 Z M 487.058594 628.480469 L 468.324219 623.476562 C 464.046875 622.292969 459.601562 623.53125 456.453125 626.625 C 453.300781 629.773438 452.121094 634.164062 453.300781 638.492188 L 458.308594 657.226562 C 459.433594 661.5 462.699219 664.761719 466.972656 665.886719 C 468.042969 666.167969 469.113281 666.335938 470.179688 666.335938 C 473.386719 666.335938 476.425781 665.101562 478.789062 662.738281 L 492.515625 649.011719 C 495.667969 645.863281 496.847656 641.476562 495.722656 637.199219 C 494.597656 632.867188 491.335938 629.664062 487.058594 628.480469 Z M 483.121094 640.519531 L 470.40625 653.230469 L 465.734375 635.851562 Z M 427.644531 620.886719 C 427.644531 616.445312 425.339844 612.507812 421.511719 610.257812 C 417.6875 608.007812 413.074219 608.007812 409.246094 610.257812 L 403.226562 613.742188 L 392.480469 619.929688 C 388.65625 622.125 386.347656 626.117188 386.347656 630.5625 C 386.347656 635.007812 388.65625 638.945312 392.480469 641.195312 L 404.351562 648.054688 L 409.246094 650.867188 C 411.160156 651.992188 413.296875 652.554688 415.378906 652.554688 C 417.460938 652.554688 419.601562 651.992188 421.511719 650.867188 C 425.339844 648.675781 427.644531 644.679688 427.644531 640.238281 Z M 414.988281 639.5625 L 402.160156 632.195312 L 399.402344 630.5625 L 402.101562 628.988281 L 414.988281 621.5625 Z M 391.300781 436.164062 C 393.664062 439.199219 397.152344 440.886719 400.921875 440.886719 C 401.484375 440.886719 402.101562 440.832031 402.664062 440.773438 L 408.742188 439.929688 L 421.90625 438.074219 C 426.296875 437.457031 429.894531 434.644531 431.585938 430.539062 C 433.214844 426.429688 432.597656 421.875 429.894531 418.386719 L 417.96875 403.085938 C 415.210938 399.601562 410.9375 397.914062 406.601562 398.476562 C 402.214844 399.09375 398.613281 401.90625 396.925781 406.011719 L 396.421875 407.25 L 389.667969 423.957031 C 387.925781 428.117188 388.542969 432.675781 391.300781 436.164062 Z M 403.566406 423.167969 L 408.347656 411.414062 L 419.429688 425.585938 L 405.253906 427.554688 L 401.597656 428.0625 Z M 404.070312 577.125 C 395.070312 568.125 404.070312 577.125 395.070312 568.125 L 404.070312 559.179688 L 408.347656 563.511719 L 413.015625 568.179688 L 407.449219 573.75 Z M 382.464844 593.492188 L 391.414062 584.550781 L 400.359375 593.550781 L 391.414062 602.492188 C 382.464844 593.492188 391.414062 602.4375 382.464844 593.492188 Z M 518.003906 444.207031 C 509 435.207031 518.003906 444.207031 509 435.207031 L 518.003906 426.261719 L 526.949219 435.261719 Z M 518.003906 647.832031 L 526.949219 656.832031 L 518.003906 665.773438 C 509.058594 656.773438 518.003906 665.773438 509.058594 656.773438 Z M 499.042969 559.238281 L 507.988281 568.238281 L 499.042969 577.179688 C 490.097656 568.179688 499.042969 577.179688 490.097656 568.179688 Z M 524.363281 527.570312 L 533.308594 536.570312 L 524.363281 545.511719 C 515.414062 536.511719 524.363281 545.511719 515.414062 536.511719 Z M 435.746094 654.1875 L 444.691406 663.1875 L 435.746094 672.132812 C 426.746094 663.132812 435.746094 672.132812 426.746094 663.132812 Z M 499.042969 603.507812 L 507.988281 612.507812 L 499.042969 621.449219 C 490.097656 612.449219 499.042969 621.449219 490.097656 612.449219 Z M 499.042969 476.945312 L 507.988281 485.945312 L 499.042969 494.886719 C 490.097656 485.886719 499.042969 494.886719 490.097656 485.886719 Z M 492.683594 399.9375 C 483.738281 390.9375 492.683594 399.9375 483.738281 390.9375 L 492.683594 381.992188 L 501.632812 390.992188 Z M 429.953125 597.375 C 432.148438 601.199219 436.140625 603.507812 440.585938 603.507812 L 459.996094 603.507812 C 464.441406 603.507812 468.378906 601.199219 470.628906 597.375 C 472.824219 593.550781 472.824219 588.9375 470.628906 585.113281 L 460.953125 568.351562 C 458.757812 564.523438 454.765625 562.21875 450.320312 562.21875 C 445.875 562.21875 441.9375 564.523438 439.6875 568.351562 L 430.007812 585.113281 C 427.703125 588.992188 427.703125 593.550781 429.953125 597.375 Z M 441.261719 590.851562 L 450.261719 575.269531 L 459.265625 590.851562 Z M 424.664062 557.664062 C 428.941406 556.539062 432.203125 553.273438 433.328125 549 L 438.335938 530.269531 C 439.460938 525.992188 438.28125 521.550781 435.183594 518.398438 C 432.035156 515.25 427.644531 514.070312 423.3125 515.25 L 409.699219 518.90625 L 404.632812 520.257812 C 400.359375 521.382812 397.09375 524.644531 395.96875 528.917969 C 395.125 532.011719 395.519531 535.164062 396.984375 537.863281 C 397.546875 538.929688 398.277344 539.886719 399.121094 540.789062 L 409.191406 550.855469 L 412.847656 554.511719 C 415.210938 556.875 418.25 558.113281 421.457031 558.113281 C 422.527344 558.113281 423.59375 558 424.664062 557.664062 Z M 408.574219 532.351562 L 409.699219 532.070312 L 425.957031 527.738281 L 421.289062 545.117188 L 409.699219 533.53125 Z M 461.121094 510.242188 C 457.632812 512.945312 455.890625 517.21875 456.507812 521.605469 L 459.210938 540.789062 C 459.828125 545.175781 462.640625 548.773438 466.75 550.460938 C 468.265625 551.082031 469.84375 551.363281 471.363281 551.363281 C 474.0625 551.363281 476.652344 550.460938 478.902344 548.773438 L 494.203125 536.851562 C 497.691406 534.09375 499.4375 529.875 498.816406 525.488281 C 498.199219 521.101562 495.386719 517.5 491.277344 515.8125 L 473.332031 508.554688 C 469.167969 506.867188 464.609375 507.488281 461.121094 510.242188 Z M 471.699219 538.367188 L 469.222656 520.539062 L 485.933594 527.289062 Z M 471.699219 538.367188 " fill-opacity="1" fill-rule="nonzero"/></g></svg>